<svg width="135" height="109" viewBox="0 0 135 109" fill="none" xmlns="http://www.w3.org/2000/svg">
<path d="M0 109V72.1902C0 58.6098 2.37467 46.2208 7.12402 35.0229C11.8734 23.5869 20.1847 11.9126 32.058 0L53.0739 17.1541C44.7625 25.4929 38.8259 33.3552 35.2639 40.741C31.7018 48.1268 29.9208 56.1082 29.9208 64.6852L17.4538 51.4623H57.7045V109H0ZM77.2955 109V72.1902C77.2955 58.6098 79.6702 46.2208 84.4195 35.0229C89.1689 23.5869 97.4802 11.9126 109.354 0L130.369 17.1541C122.058 25.4929 116.121 33.3552 112.559 40.741C108.997 48.1268 107.216 56.1082 107.216 64.6852L94.7493 51.4623H135V109H77.2955Z" fill="#E3E3E3"/>
</svg>
